<svg xmlns="http://www.w3.org/2000/svg" viewBox="0 0 1920 1080"><defs><linearGradient id="sky" x2="0" y2="1"><stop stop-color="#02040e"/><stop offset=".62" stop-color="#0b1830"/><stop offset="1" stop-color="#20172a"/></linearGradient><radialGradient id="glow"><stop stop-color="#ffd77d" stop-opacity=".95"/><stop offset=".28" stop-color="#f19a43" stop-opacity=".55"/><stop offset="1" stop-color="#bb4b36" stop-opacity="0"/></radialGradient><filter id="blur"><feGaussianBlur stdDeviation="18"/></filter><filter id="soft"><feGaussianBlur stdDeviation="5"/></filter></defs><rect width="1920" height="1080" fill="url(#sky)"/><g fill="#fff"><circle cx="180" cy="170" r="2"/><circle cx="420" cy="260" r="3"/><circle cx="670" cy="115" r="2"/><circle cx="920" cy="220" r="2"/><circle cx="1240" cy="120" r="3"/><circle cx="1630" cy="240" r="2"/><circle cx="1790" cy="90" r="2"/><circle cx="1450" cy="355" r="2"/><circle cx="260" cy="440" r="2"/></g><ellipse cx="1160" cy="420" rx="500" ry="230" fill="url(#glow)" filter="url(#blur)"/><path d="M390 580 C760 80 1390 50 1730 430 C1490 130 950 300 690 730 C560 940 1000 1010 1400 810" fill="none" stroke="#f7bd61" stroke-opacity=".25" stroke-width="100" filter="url(#blur)"/><path d="M330 590 C760 90 1380 60 1710 420 C1450 190 1010 350 730 730 C580 940 970 990 1370 820" fill="none" stroke="#ffc96e" stroke-width="13" stroke-linecap="round"/><path d="M390 600 C790 150 1320 140 1640 410" fill="none" stroke="#fff0b1" stroke-opacity=".65" stroke-width="3"/><path d="M0 850 L300 730 540 840 790 720 1090 830 1330 700 1620 820 1920 690 V1080 H0Z" fill="#03060e"/><path d="M0 940 Q400 850 760 950 T1500 920 T1920 870 V1080 H0Z" fill="#07101a"/><g transform="translate(1040 795)"><path d="M-85 50 L0 -25 85 50Z" fill="#241d1d"/><rect x="-68" y="48" width="136" height="74" fill="#171316"/><rect x="-20" y="70" width="30" height="30" fill="#ffc451"/><path d="M-28 70h46v40h-46z" fill="#ffb53f" opacity=".5" filter="url(#soft)"/><rect x="40" y="74" width="12" height="17" fill="#f5a942"/></g><ellipse cx="1050" cy="920" rx="260" ry="35" fill="#e89d43" opacity=".22" filter="url(#blur)"/></svg>